<svg xmlns="http://www.w3.org/2000/svg" xmlns:xlink="http://www.w3.org/1999/xlink" version="1.1" x="0px" y="0px" viewBox="0 0 100 125" enable-background="new 0 0 100 100" xml:space="preserve"><g><path fill="none" d="M41.633,73.1c-2.409-0.635-4.688-1.614-6.583-3.051c0.757,3.336,2.003,6.187,3.94,8.336   c2.73,3.03,6.637,4.504,11.943,4.504c6.22,0,10.589-1.671,13.362-5.107c1.794-2.224,2.816-5.11,3.294-8.43   c-0.512,0.398-1.051,0.754-1.566,1.061c-1.131,0.676-2.327,1.233-3.562,1.696c0.599,1.351,1.107,2.994,0.614,4.449   c-0.365,1.078-1.166,1.903-2.334,2.02c-1.112,0.111-2.128-0.607-2.717-1.497c-0.688-1.04-0.919-2.307-0.93-3.551   c-1.494,0.256-3.002,0.418-4.489,0.508c-1.709,0.104-3.573,0.108-5.474-0.039c0.167,1.225,0.115,2.49-0.429,3.61   c-0.47,0.969-1.4,1.777-2.521,1.797c-1.062,0.019-2.054-0.669-2.484-1.633c-0.654-1.466-0.509-3.067-0.098-4.584   C41.608,73.156,41.622,73.13,41.633,73.1z"/><path fill="none" d="M92.12,49.449c-1.265-5.155-3.287-10.176-6.102-14.673c-0.335-0.536-0.681-1.064-1.039-1.584   c-1.219-1.771-2.576-3.442-4.062-4.999c-1.628-1.705-3.409-3.274-5.365-4.655c-1.917-1.354-3.95-2.527-6.066-3.519   c-2.164-1.014-4.415-1.835-6.721-2.456c0.073,3.579,0.547,7.84,1.315,12.447c0.195,1.17,0.409,2.361,0.64,3.57   c0.259,1.355,0.539,2.729,0.84,4.118c0.263,1.216,0.529,2.445,0.792,3.682c2.503-1.738,5.562-2.763,8.869-2.763   c8.46,0,15.318,6.689,15.318,14.941c0,8.251-6.859,14.941-15.318,14.941c-2.045,0-3.995-0.394-5.778-1.103   c-0.005,0.008-0.01,0.015-0.015,0.022c-0.343,4.5-1.484,8.434-3.865,11.384c-3.058,3.792-7.981,5.714-14.631,5.714   c-5.714,0-10.14-1.696-13.154-5.042c-2.727-3.026-4.191-7.236-4.868-12.157c-2.15,1.704-4.845,2.72-7.774,2.72   c-7.024,0-12.717-5.829-12.717-13.021c0-7.189,5.693-13.02,12.717-13.02c3.012,0,5.778,1.075,7.957,2.868   c0.239-2.65,0.518-5.327,0.796-7.988c0.155-1.486,0.311-2.984,0.46-4.48c0.13-1.306,0.255-2.61,0.369-3.905   c0.315-3.568,0.547-7.061,0.583-10.303c-1.615,0.862-3.149,1.848-4.611,2.936c-3.502,2.606-6.574,5.81-9.255,9.381   c-1.212,1.615-2.346,3.304-3.402,5.047c-0.341,0.563-0.673,1.131-0.998,1.704c-1.678,2.957-3.151,6.039-4.429,9.152   c-6.039,14.709,4.878,29.711,16.1,38.474c5.774,4.509,12.631,8.386,19.952,9.558c7.388,1.183,14.869-1.256,21.176-5.028   C83.806,83.06,96.053,66.479,92.12,49.449z"/><path fill="none" d="M69.718,18.109c0.309-1.461,0.921-2.919,1.849-4.268c3.265-4.745,9.194-5.538,13.242-2.752   c4.049,2.786,4.684,8.095,1.419,12.84c-1.022,1.486-2.306,2.662-3.712,3.491c1.388,1.489,2.672,3.077,3.85,4.752   c1.532-1.226,2.898-2.667,4.018-4.252c2.645-3.95,4.363-8.905,3.378-13.696c-0.854-4.157-3.353-7.794-7.204-9.716   c-7.839-3.911-17.207-0.096-21.55,7.17c-0.748,1.251-1.368,2.624-1.844,4.06c0.024,0.006,0.049,0.012,0.073,0.018   C65.503,16.366,67.663,17.16,69.718,18.109z"/><path fill="none" d="M14.542,28.985c-4.026-4.19-3.994-9.576-0.42-13.011c3.575-3.435,9.339-3.619,13.365,0.57   c1.29,1.342,2.202,2.889,2.731,4.484c1.456-1.033,2.98-1.966,4.571-2.779c-0.968-2.596-2.477-5.025-4.353-7.028   c-6.049-6.12-16.313-7.696-22.814-1.239c-6.906,6.86-4.594,17.297,2.288,23.281c1.8,1.565,3.968,2.844,6.284,3.705   c0.987-1.684,2.042-3.328,3.175-4.916C17.634,31.484,15.956,30.456,14.542,28.985z"/><g><path fill="none" d="M41.633,73.1c-2.409-0.635-4.688-1.614-6.583-3.051c0.757,3.336,2.003,6.187,3.94,8.336    c2.73,3.03,6.637,4.504,11.943,4.504c6.22,0,10.589-1.671,13.362-5.107c1.794-2.224,2.816-5.11,3.294-8.43    c-0.512,0.398-1.051,0.754-1.566,1.061c-1.131,0.676-2.327,1.233-3.562,1.696c0.599,1.351,1.107,2.994,0.614,4.449    c-0.365,1.078-1.166,1.903-2.334,2.02c-1.112,0.111-2.128-0.607-2.717-1.497c-0.688-1.04-0.919-2.307-0.93-3.551    c-1.494,0.256-3.002,0.418-4.489,0.508c-1.709,0.104-3.573,0.108-5.474-0.039c0.167,1.225,0.115,2.49-0.429,3.61    c-0.47,0.969-1.4,1.777-2.521,1.797c-1.062,0.019-2.054-0.669-2.484-1.633c-0.654-1.466-0.509-3.067-0.098-4.584    C41.608,73.156,41.622,73.13,41.633,73.1z"/><path fill="none" d="M34.38,65.955c0.042,0.379,0.088,0.754,0.138,1.124c0.031,0.026,0.062,0.049,0.091,0.081    c2.694,2.93,6.954,4.347,11.148,4.874c0.243-0.066,0.505-0.043,0.719,0.081c1.39,0.142,2.761,0.19,4.056,0.165    c0-0.003-0.001-0.005-0.001-0.008c-0.308-3.891-0.615-7.781-0.923-11.672c-6.089-0.021-9.875-2.536-9.875-2.536    c-2.339-1.041-2.123-2.748-1.249-3.809l8.75-10.627c0.874-1.062,2.444-1.214,3.506-0.34l9.388,7.729l2.466,2.03    c1.062,0.874,1.214,2.141,0.34,3.202c0,0-0.861,0.706-2.401,1.548c-2.004,1.096-5.16,2.422-9.079,2.733    c0.307,3.888,0.615,7.777,0.922,11.665c4.336-0.292,8.971-1.052,12.712-3.383c0.927-0.577,2.043-1.371,2.66-2.213    c0.042-0.058,0.081-0.116,0.118-0.174c0.368-7.079-1.193-15.64-2.943-23.929c-0.316-1.497-0.638-2.985-0.956-4.454    c-0.524-2.42-0.989-4.847-1.384-7.218c-0.838-5.025-1.362-9.791-1.447-13.666c-0.002-0.104-0.002-0.203-0.004-0.306    c-0.087-0.022-0.195-0.048-0.319-0.077c-1.332-0.312-4.744-0.992-9.219-0.992c-0.895,0-1.798,0.027-2.684,0.081    c-6.287,0.382-10.841,2.367-11.915,2.874c-0.049,0.023-0.091,0.043-0.125,0.06l0.067-0.022c0,0.196-0.003,0.398-0.004,0.597    c-0.028,3.661-0.302,7.803-0.669,11.966c-0.229,2.6-0.493,5.206-0.755,7.706c-0.323,3.096-0.648,6.213-0.909,9.279    C34.065,54.62,33.802,60.699,34.38,65.955z"/><path fill="none" d="M69.718,18.109c0.309-1.461,0.921-2.919,1.849-4.268c3.265-4.745,9.194-5.538,13.242-2.752    c4.049,2.786,4.684,8.095,1.419,12.84c-1.022,1.486-2.306,2.662-3.712,3.491c1.388,1.489,2.672,3.077,3.85,4.752    c1.532-1.226,2.898-2.667,4.018-4.252c2.645-3.95,4.363-8.905,3.378-13.696c-0.854-4.157-3.353-7.794-7.204-9.716    c-7.839-3.911-17.207-0.096-21.55,7.17c-0.748,1.251-1.368,2.624-1.844,4.06c0.024,0.006,0.049,0.012,0.073,0.018    C65.503,16.366,67.663,17.16,69.718,18.109z"/><path fill="none" d="M86.018,34.777c-0.335-0.536-0.681-1.064-1.039-1.584c-1.219-1.771-2.576-3.442-4.062-4.999    c-1.628-1.705-3.409-3.274-5.365-4.655c-1.917-1.354-3.95-2.527-6.066-3.519c-2.164-1.014-4.415-1.835-6.721-2.456    c0.073,3.579,0.547,7.84,1.315,12.447c0.195,1.17,0.409,2.361,0.64,3.57c0.259,1.355,0.539,2.729,0.84,4.118    c0.263,1.216,0.529,2.445,0.792,3.682c2.503-1.738,5.562-2.763,8.869-2.763c8.46,0,15.318,6.689,15.318,14.941    c0,8.251-6.859,14.941-15.318,14.941c-2.045,0-3.995-0.394-5.778-1.103c-0.005,0.008-0.01,0.015-0.015,0.022    c-0.343,4.5-1.484,8.434-3.865,11.384c-3.058,3.792-7.981,5.714-14.631,5.714c-5.714,0-10.14-1.696-13.154-5.042    c-2.727-3.026-4.191-7.236-4.868-12.157c-2.15,1.704-4.845,2.72-7.774,2.72c-7.024,0-12.717-5.829-12.717-13.021    c0-7.189,5.693-13.02,12.717-13.02c3.012,0,5.778,1.075,7.957,2.868c0.239-2.65,0.518-5.327,0.796-7.988    c0.155-1.486,0.311-2.984,0.46-4.48c0.13-1.306,0.255-2.61,0.369-3.905c0.315-3.568,0.547-7.061,0.583-10.303    c-1.615,0.862-3.149,1.848-4.611,2.936c-3.502,2.606-6.574,5.81-9.255,9.381c-1.212,1.615-2.346,3.304-3.402,5.047    c-0.341,0.563-0.673,1.131-0.998,1.704c-1.678,2.957-3.151,6.039-4.429,9.152c-6.039,14.709,4.878,29.711,16.1,38.474    c5.774,4.509,12.631,8.386,19.952,9.558c7.388,1.183,14.869-1.256,21.176-5.028c13.97-8.355,26.218-24.937,22.285-41.966    C90.855,44.294,88.833,39.274,86.018,34.777z"/><path fill="none" d="M22.018,49.239c-4.659,0.537-6.431,3.743-5.877,8.336c0.556,4.593,3.726,6.644,8.387,6.108    c4.66-0.534,7.384-3.353,6.829-7.947C30.803,51.144,26.679,48.705,22.018,49.239z"/><path fill="none" d="M78.521,59.525c4.516-0.551,7.203-3.869,6.65-8.387c-0.554-4.516-3.725-6.996-8.241-6.444    c-4.518,0.552-7.835,3.826-7.282,8.343C70.201,57.554,74.004,60.078,78.521,59.525z"/><path fill="none" d="M19.37,32.052c-1.736-0.568-3.414-1.596-4.828-3.068c-4.026-4.19-3.994-9.576-0.42-13.011    c3.575-3.435,9.339-3.619,13.365,0.57c1.29,1.342,2.202,2.889,2.731,4.484c1.456-1.033,2.98-1.966,4.571-2.779    c-0.968-2.596-2.477-5.025-4.353-7.028c-6.049-6.12-16.313-7.696-22.814-1.239c-6.906,6.86-4.594,17.297,2.288,23.281    c1.8,1.565,3.968,2.844,6.284,3.705C17.182,35.285,18.236,33.64,19.37,32.052z"/><g><path fill="none" d="M60.768,76.735c0.04-0.021,0.11-0.092,0.148-0.116c0.032-0.025,0.077-0.06,0.088-0.072     c0.148-0.152,0.271-0.366,0.34-0.672c0.206-0.919-0.14-2.089-0.561-3.01c-0.027-0.059-0.045-0.117-0.06-0.174     c-0.588,0.174-1.182,0.33-1.781,0.468c-0.032,0.966,0.057,1.986,0.563,2.805c0.177,0.286,0.383,0.515,0.592,0.634     c0.191,0.109,0.027,0.063,0.297,0.124c0.026,0.006,0.041,0.01,0.053,0.014"/><path fill="none" d="M34.38,65.955c0.042,0.379,0.088,0.754,0.138,1.124c0.031,0.026,0.062,0.049,0.091,0.081     c2.694,2.93,6.954,4.347,11.148,4.874c0.243-0.066,0.505-0.043,0.719,0.081c1.39,0.142,2.761,0.19,4.056,0.165     c0-0.003-0.001-0.005-0.001-0.008c-0.308-3.891-0.615-7.781-0.923-11.672c-6.089-0.021-9.875-2.536-9.875-2.536     c-2.339-1.041-2.123-2.748-1.249-3.809l8.75-10.627c0.874-1.062,2.444-1.214,3.506-0.34l9.388,7.729l2.466,2.03     c1.062,0.874,1.214,2.141,0.34,3.202c0,0-0.861,0.706-2.401,1.548c-2.004,1.096-5.16,2.422-9.079,2.733     c0.307,3.888,0.615,7.777,0.922,11.665c4.336-0.292,8.971-1.052,12.712-3.383c0.927-0.577,2.043-1.371,2.66-2.213     c0.042-0.058,0.081-0.116,0.118-0.174c0.368-7.079-1.193-15.64-2.943-23.929c-0.316-1.497-0.638-2.985-0.956-4.454     c-0.524-2.42-0.989-4.847-1.384-7.218c-0.838-5.025-1.362-9.791-1.447-13.666c-0.002-0.104-0.002-0.203-0.004-0.306     c-0.087-0.022-0.195-0.048-0.319-0.077c-1.332-0.312-4.744-0.992-9.219-0.992c-0.895,0-1.798,0.027-2.684,0.081     c-6.287,0.382-10.841,2.367-11.915,2.874c-0.049,0.023-0.091,0.043-0.125,0.06l0.067-0.022c0,0.196-0.003,0.398-0.004,0.597     c-0.028,3.661-0.302,7.803-0.669,11.966c-0.229,2.6-0.493,5.206-0.755,7.706c-0.323,3.096-0.648,6.213-0.909,9.279     C34.065,54.62,33.802,60.699,34.38,65.955z"/><path fill="none" d="M69.528,18.026c0.341-1.231,0.897-2.449,1.681-3.588c3.265-4.745,9.194-5.538,13.242-2.752     c4.049,2.786,4.684,8.095,1.419,12.84c-0.882,1.282-1.96,2.333-3.142,3.13c1.306,1.421,2.522,2.929,3.638,4.517     c1.532-1.226,2.898-2.667,4.018-4.252c2.645-3.95,4.363-8.905,3.378-13.696c-0.854-4.157-3.353-7.794-7.204-9.716     c-7.839-3.911-17.207-0.096-21.55,7.17c-0.748,1.251-1.368,2.624-1.844,4.06c0.024,0.006,0.049,0.012,0.073,0.018     C65.434,16.348,67.53,17.115,69.528,18.026z"/><path fill="none" d="M41.633,73.1c-2.409-0.635-4.688-1.614-6.583-3.051c0.757,3.336,2.003,6.187,3.94,8.336     c2.73,3.03,6.637,4.504,11.943,4.504c6.22,0,10.589-1.671,13.362-5.107c1.794-2.224,2.816-5.11,3.294-8.43     c-0.512,0.398-1.051,0.754-1.566,1.061c-1.131,0.676-2.327,1.233-3.562,1.696c0.599,1.351,1.107,2.994,0.614,4.449     c-0.365,1.078-1.166,1.903-2.334,2.02c-1.112,0.111-2.128-0.607-2.717-1.497c-0.688-1.04-0.919-2.307-0.93-3.551     c-1.494,0.256-3.002,0.418-4.489,0.508c-1.709,0.104-3.573,0.108-5.474-0.039c0.167,1.225,0.115,2.49-0.429,3.61     c-0.47,0.969-1.4,1.777-2.521,1.797c-1.062,0.019-2.054-0.669-2.484-1.633c-0.654-1.466-0.509-3.067-0.098-4.584     C41.608,73.156,41.622,73.13,41.633,73.1z"/><path fill="none" d="M22.018,49.239c-4.659,0.537-6.431,3.743-5.877,8.336c0.556,4.593,3.726,6.644,8.387,6.108     c4.66-0.534,7.384-3.353,6.829-7.947C30.803,51.144,26.679,48.705,22.018,49.239z"/><path fill="none" d="M78.521,59.525c4.516-0.551,7.203-3.869,6.65-8.387c-0.554-4.516-3.725-6.996-8.241-6.444     c-4.518,0.552-7.835,3.826-7.282,8.343C70.201,57.554,74.004,60.078,78.521,59.525z"/><path fill="none" d="M19.352,32.079c-1.392-0.601-2.721-1.501-3.873-2.7c-4.026-4.19-3.994-9.576-0.42-13.011     c3.575-3.435,9.339-3.619,13.365,0.57c1.067,1.11,1.871,2.362,2.418,3.664c1.267-0.863,2.581-1.654,3.947-2.352     c-0.968-2.596-2.477-5.025-4.353-7.028c-6.049-6.12-16.313-7.696-22.814-1.239c-6.906,6.86-4.594,17.297,2.288,23.281     c1.8,1.565,3.968,2.844,6.284,3.705C17.176,35.294,18.225,33.659,19.352,32.079z"/><path fill="none" d="M86.018,34.777c-0.335-0.536-0.681-1.064-1.039-1.584c-1.219-1.771-2.576-3.442-4.062-4.999     c-1.628-1.705-3.409-3.274-5.365-4.655c-1.917-1.354-3.95-2.527-6.066-3.519c-2.164-1.014-4.415-1.835-6.721-2.456     c0.073,3.579,0.547,7.84,1.315,12.447c0.195,1.17,0.409,2.361,0.64,3.57c0.259,1.355,0.539,2.729,0.84,4.118     c0.263,1.216,0.529,2.445,0.792,3.682c2.503-1.738,5.562-2.763,8.869-2.763c8.46,0,15.318,6.689,15.318,14.941     c0,8.251-6.859,14.941-15.318,14.941c-2.045,0-3.995-0.394-5.778-1.103c-0.005,0.008-0.01,0.015-0.015,0.022     c-0.343,4.5-1.484,8.434-3.865,11.384c-3.058,3.792-7.981,5.714-14.631,5.714c-5.714,0-10.14-1.696-13.154-5.042     c-2.727-3.026-4.191-7.236-4.868-12.157c-2.15,1.704-4.845,2.72-7.774,2.72c-7.024,0-12.717-5.829-12.717-13.021     c0-7.189,5.693-13.02,12.717-13.02c3.012,0,5.778,1.075,7.957,2.868c0.239-2.65,0.518-5.327,0.796-7.988     c0.155-1.486,0.311-2.984,0.46-4.48c0.13-1.306,0.255-2.61,0.369-3.905c0.315-3.568,0.547-7.061,0.583-10.303     c-1.615,0.862-3.149,1.848-4.611,2.936c-3.502,2.606-6.574,5.81-9.255,9.381c-1.212,1.615-2.346,3.304-3.402,5.047     c-0.341,0.563-0.673,1.131-0.998,1.704c-1.678,2.957-3.151,6.039-4.429,9.152c-6.039,14.709,4.878,29.711,16.1,38.474     c5.774,4.509,12.631,8.386,19.952,9.558c7.388,1.183,14.869-1.256,21.176-5.028c13.97-8.355,26.218-24.937,22.285-41.966     C90.855,44.294,88.833,39.274,86.018,34.777z"/></g></g><path d="M26.244,51.938c-2.065-0.177-3.874,1.335-4.046,3.363c-0.172,2.032,1.361,3.82,3.424,3.996   c2.063,0.173,3.873-1.333,4.047-3.367C29.838,53.9,28.305,52.112,26.244,51.938z M25.461,56.012   c-0.665-0.057-1.16-0.634-1.105-1.289c0.056-0.655,0.64-1.143,1.305-1.086c0.665,0.057,1.16,0.634,1.105,1.288   C26.711,55.582,26.127,56.068,25.461,56.012z"/><path d="M75.057,55.05c1.955,0.164,3.668-1.262,3.833-3.188c0.161-1.923-1.291-3.616-3.244-3.781   c-1.954-0.167-3.669,1.264-3.831,3.186C71.653,53.191,73.104,54.883,75.057,55.05z M75.981,49.704   c0.665,0.057,1.16,0.633,1.105,1.288c-0.056,0.656-0.64,1.142-1.306,1.086c-0.665-0.057-1.159-0.634-1.104-1.289   C74.731,50.135,75.316,49.647,75.981,49.704z"/></g><g><path fill="none" d="M34.38,65.955c0.042,0.379,0.088,0.754,0.138,1.124c0.031,0.026,0.062,0.049,0.091,0.081   c2.694,2.93,6.954,4.347,11.148,4.874l0.719,0.081c1.39,0.142,2.761,0.19,4.056,0.165c0-0.003-0.001-0.005-0.001-0.008   c-0.308-3.891-0.615-7.781-0.923-11.672c-6.089-0.021-9.875-2.536-9.875-2.536c-2.339-1.041-2.123-2.748-1.249-3.809l8.75-10.627   c0.874-1.062,2.444-1.214,3.506-0.34l9.388,7.729l2.466,2.03c1.062,0.874,1.214,2.141,0.34,3.202c0,0-0.861,0.706-2.401,1.548   c-2.004,1.096-5.16,2.422-9.079,2.733c0.307,3.888,0.615,7.777,0.922,11.665c4.336-0.292,8.971-1.052,12.712-3.383   c0.927-0.577,2.043-1.371,2.66-2.213c0.042-0.058,0.081-0.116,0.118-0.174c0.368-7.079-1.193-15.64-2.943-23.929   c-0.316-1.497-0.638-2.985-0.956-4.454c-0.524-2.42-0.989-4.847-1.384-7.218c-0.838-5.025-1.362-9.791-1.447-13.666   c-0.002-0.104-0.002-0.203-0.004-0.306c-0.087-0.022-0.195-0.048-0.319-0.077c-1.332-0.312-4.744-0.992-9.219-0.992   c-0.895,0-1.798,0.027-2.684,0.081c-6.287,0.382-10.841,2.367-11.915,2.874c-0.049,0.023-0.091,0.043-0.125,0.06l0.067-0.022   c0,0.196-0.003,0.398-0.004,0.597c-0.028,3.661-0.302,7.803-0.669,11.966c-0.229,2.6-0.493,5.206-0.755,7.706   c-0.323,3.096-0.648,6.213-0.909,9.279C34.065,54.62,33.802,60.699,34.38,65.955z"/><path fill="none" d="M41.633,73.1c-2.409-0.635-4.688-1.614-6.583-3.051c0.757,3.336,2.003,6.187,3.94,8.336   c2.73,3.03,6.637,4.504,11.943,4.504c6.22,0,10.589-1.671,13.362-5.107c1.794-2.224,2.816-5.11,3.294-8.43   c-0.512,0.398-1.051,0.754-1.566,1.061c-1.131,0.676-2.327,1.233-3.562,1.696c0.599,1.351,1.107,2.994,0.614,4.449   c-0.365,1.078-1.166,1.903-2.334,2.02c-1.112,0.111-2.128-0.607-2.717-1.497c-0.688-1.04-0.919-2.307-0.93-3.551   c-1.494,0.256-3.002,0.418-4.489,0.508c-1.709,0.104-3.573,0.108-5.474-0.039c0.167,1.225,0.115,2.49-0.429,3.61   c-0.47,0.969-1.4,1.777-2.521,1.797c-1.062,0.019-2.054-0.669-2.484-1.633c-0.654-1.466-0.509-3.067-0.098-4.584   C41.608,73.156,41.622,73.13,41.633,73.1z"/><path fill="none" d="M19.352,32.079c-1.392-0.601-2.721-1.501-3.873-2.7c-4.026-4.19-3.994-9.576-0.42-13.011   c3.575-3.435,9.339-3.619,13.365,0.57c1.067,1.11,1.871,2.362,2.418,3.664c1.267-0.863,2.581-1.654,3.947-2.352   c-0.968-2.596-2.477-5.025-4.353-7.028c-6.049-6.12-16.313-7.696-22.814-1.239c-6.906,6.86-4.594,17.297,2.288,23.281   c1.8,1.565,3.968,2.844,6.284,3.705C17.176,35.294,18.225,33.659,19.352,32.079z"/><path fill="none" d="M69.528,18.026c0.341-1.231,0.897-2.449,1.681-3.588c3.265-4.745,9.194-5.538,13.242-2.752   c4.049,2.786,4.684,8.095,1.419,12.84c-0.882,1.282-1.96,2.333-3.142,3.13c1.306,1.421,2.522,2.929,3.638,4.517   c1.532-1.226,2.898-2.667,4.018-4.252c2.645-3.95,4.363-8.905,3.378-13.696c-0.854-4.157-3.353-7.794-7.204-9.716   c-7.839-3.911-17.207-0.096-21.55,7.17c-0.748,1.251-1.368,2.624-1.844,4.06c0.024,0.006,0.049,0.012,0.073,0.018   C65.434,16.348,67.53,17.115,69.528,18.026z"/><path fill="none" d="M22.018,49.239c-4.659,0.537-6.431,3.743-5.877,8.336c0.556,4.593,3.726,6.644,8.387,6.108   c4.66-0.534,7.384-3.353,6.829-7.947C30.803,51.144,26.679,48.705,22.018,49.239z"/><path fill="none" d="M78.521,59.525c4.516-0.551,7.203-3.869,6.65-8.387c-0.554-4.516-3.725-6.996-8.241-6.444   c-4.518,0.552-7.835,3.826-7.282,8.343C70.201,57.554,74.004,60.078,78.521,59.525z"/><path fill="none" d="M86.018,34.777c-0.335-0.536-0.681-1.064-1.039-1.584c-1.219-1.771-2.576-3.442-4.062-4.999   c-1.628-1.705-3.409-3.274-5.365-4.655c-1.917-1.354-3.95-2.527-6.066-3.519c-2.164-1.014-4.415-1.835-6.721-2.456   c0.073,3.579,0.547,7.84,1.315,12.447c0.195,1.17,0.409,2.361,0.64,3.57c0.259,1.355,0.539,2.729,0.84,4.118   c0.263,1.216,0.529,2.445,0.792,3.682c2.503-1.738,5.562-2.763,8.869-2.763c8.46,0,15.318,6.689,15.318,14.941   c0,8.251-6.859,14.941-15.318,14.941c-2.045,0-3.995-0.394-5.778-1.103c-0.005,0.008-0.01,0.015-0.015,0.022   c-0.343,4.5-1.484,8.434-3.865,11.384c-3.058,3.792-7.981,5.714-14.631,5.714c-5.714,0-10.14-1.696-13.154-5.042   c-2.727-3.026-4.191-7.236-4.868-12.157c-2.15,1.704-4.845,2.72-7.774,2.72c-7.024,0-12.717-5.829-12.717-13.021   c0-7.189,5.693-13.02,12.717-13.02c3.012,0,5.778,1.075,7.957,2.868c0.239-2.65,0.518-5.327,0.796-7.988   c0.155-1.486,0.311-2.984,0.46-4.48c0.13-1.306,0.255-2.61,0.369-3.905c0.315-3.568,0.547-7.061,0.583-10.303   c-1.615,0.862-3.149,1.848-4.611,2.936c-3.502,2.606-6.574,5.81-9.255,9.381c-1.212,1.615-2.346,3.304-3.402,5.047   c-0.341,0.563-0.673,1.131-0.998,1.704c-1.678,2.957-3.151,6.039-4.429,9.152c-6.039,14.709,4.878,29.711,16.1,38.474   c5.774,4.509,12.631,8.386,19.952,9.558c7.388,1.183,14.869-1.256,21.176-5.028c13.97-8.355,26.218-24.937,22.285-41.966   C90.855,44.294,88.833,39.274,86.018,34.777z"/><path d="M87.42,33.733c1.745-1.408,3.287-3.074,4.562-4.878c4.664-6.966,5.586-16.354-0.383-22.863   C86.27,0.181,77.403-0.129,70.804,3.494c-4.481,2.46-7.892,6.86-9.546,11.788c-7.077-1.54-14.669-1.307-21.544,0.917   c-1.087,0.351-2.144,0.765-3.179,1.222c-1.09-2.784-2.773-5.357-4.788-7.509C25.89,3.99,17.095,2.065,9.647,6.174   c-7.411,4.089-9.876,13.015-6.709,20.611c2.251,5.399,6.86,9.753,12.297,11.868c-0.132,0.237-0.265,0.474-0.394,0.712   c-1.973,3.639-3.912,7.535-5.102,11.511c-1.957,6.539-0.283,13.521,2.65,19.482c3.377,6.863,8.722,12.771,14.639,17.542   c5.618,4.53,12.151,8.239,19.206,9.939c12.41,2.991,24.921-3.559,33.815-11.816c10.009-9.292,17.053-23.221,13.855-37.065   C92.561,43.482,90.373,38.32,87.42,33.733z M65.007,11.679c4.343-7.266,13.711-11.081,21.55-7.17   c3.852,1.922,6.35,5.559,7.204,9.716c0.984,4.791-0.733,9.746-3.378,13.696c-1.12,1.585-2.486,3.027-4.018,4.252   c-1.116-1.588-2.332-3.096-3.638-4.517c1.182-0.797,2.26-1.847,3.142-3.13c3.265-4.745,2.63-10.054-1.419-12.84   c-4.049-2.786-9.978-1.994-13.242,2.752c-0.784,1.139-1.34,2.357-1.681,3.588c-1.999-0.911-4.094-1.678-6.292-2.269   c-0.024-0.007-0.049-0.012-0.073-0.018C63.639,14.303,64.259,12.93,65.007,11.679z M36.265,31.341   c0.367-4.164,0.642-8.305,0.669-11.966c0.001-0.199,0.004-0.4,0.004-0.597L36.872,18.8c0.034-0.017,0.076-0.037,0.125-0.06   c1.073-0.507,5.627-2.492,11.915-2.874c0.886-0.054,1.789-0.081,2.684-0.081c4.474,0,7.887,0.68,9.219,0.992   c0.124,0.029,0.232,0.055,0.319,0.077c0.002,0.103,0.001,0.202,0.004,0.306c0.085,3.875,0.609,8.642,1.447,13.666   c0.396,2.371,0.86,4.798,1.384,7.218c0.318,1.469,0.64,2.957,0.956,4.454c1.75,8.289,3.311,16.85,2.943,23.929   c-0.037,0.058-0.076,0.116-0.118,0.174c-0.617,0.842-1.733,1.636-2.66,2.213c-3.742,2.331-8.377,3.091-12.712,3.383   c-0.307-3.888-0.615-7.777-0.922-11.665c3.919-0.31,7.076-1.637,9.079-2.733c1.54-0.842,2.401-1.548,2.401-1.548   c0.875-1.061,0.723-2.328-0.34-3.202l-2.466-2.03l-9.388-7.729c-1.062-0.874-2.632-0.722-3.506,0.34l-8.75,10.627   c-0.874,1.061-1.09,2.768,1.249,3.809c0,0,3.785,2.515,9.875,2.536c0.308,3.891,0.615,7.781,0.923,11.672   c0,0.003,0.001,0.005,0.001,0.008c-1.295,0.024-2.666-0.023-4.056-0.165l-0.719-0.081c-4.194-0.527-8.454-1.944-11.148-4.874   c-0.029-0.032-0.061-0.055-0.091-0.081c-0.051-0.37-0.097-0.745-0.138-1.124c-0.579-5.256-0.315-11.335,0.221-17.628   c0.261-3.067,0.586-6.183,0.909-9.279C35.771,36.547,36.036,33.94,36.265,31.341z M41.697,77.772   c0.43,0.963,1.422,1.652,2.484,1.633c1.121-0.02,2.051-0.828,2.521-1.797c0.544-1.12,0.596-2.385,0.429-3.61   c1.901,0.147,3.765,0.143,5.474,0.039c1.487-0.09,2.995-0.252,4.489-0.508c0.011,1.244,0.242,2.511,0.93,3.551   c0.589,0.891,1.605,1.608,2.717,1.497c1.168-0.116,1.97-0.942,2.334-2.02c0.492-1.455-0.015-3.098-0.614-4.449   c1.235-0.463,2.431-1.02,3.562-1.696c0.515-0.308,1.053-0.663,1.566-1.061c-0.477,3.32-1.5,6.206-3.294,8.43   c-2.772,3.437-7.142,5.107-13.362,5.107c-5.306,0-9.213-1.473-11.943-4.504c-1.937-2.15-3.183-5-3.94-8.336   c1.896,1.437,4.174,2.416,6.583,3.051c-0.011,0.03-0.025,0.056-0.034,0.088C41.188,74.706,41.043,76.307,41.697,77.772z    M42.946,76.429c-0.16-0.949,0.14-1.927,0.534-2.811l1.841,0.249c0.044,1.012-0.1,2.397-0.637,3.171   c-0.179,0.258-0.289,0.441-0.49,0.583c-0.014,0.01-0.411,0.32-0.798-0.155l0-0.008C43.234,77.279,43.002,76.76,42.946,76.429z    M59.106,73.325l1.799-0.462c0.421,0.921,0.809,2.259,0.602,3.177c-0.069,0.306-0.102,0.517-0.235,0.725   c-0.009,0.014-0.26,0.451-0.798,0.156l-0.003-0.008c-0.216-0.105-0.626-0.498-0.803-0.784   C59.163,75.311,59.074,74.291,59.106,73.325z M9.911,33.263C3.029,27.28,0.717,16.842,7.623,9.982   c6.501-6.457,16.764-4.881,22.814,1.239c1.876,2.003,3.385,4.432,4.353,7.028c-1.367,0.698-2.681,1.49-3.947,2.352   c-0.547-1.302-1.351-2.553-2.418-3.664c-4.026-4.189-9.791-4.005-13.365-0.57c-3.575,3.436-3.606,8.821,0.42,13.011   c1.152,1.199,2.481,2.099,3.873,2.7c-1.127,1.58-2.175,3.215-3.157,4.889C13.879,36.107,11.71,34.827,9.911,33.263z M69.835,91.415   c-6.306,3.772-13.788,6.211-21.176,5.028c-7.321-1.173-14.178-5.049-19.952-9.558c-11.222-8.763-22.139-23.765-16.1-38.474   c1.278-3.113,2.751-6.196,4.429-9.152c0.325-0.573,0.657-1.141,0.998-1.704c1.056-1.743,2.189-3.432,3.402-5.047   c2.681-3.572,5.753-6.776,9.255-9.381c1.462-1.088,2.996-2.074,4.611-2.936c-0.036,3.242-0.268,6.735-0.583,10.303   c-0.114,1.295-0.239,2.599-0.369,3.905c-0.149,1.496-0.305,2.994-0.46,4.48c-0.278,2.662-0.557,5.338-0.796,7.988   c-2.179-1.793-4.945-2.868-7.957-2.868c-7.024,0-12.717,5.83-12.717,13.02c0,7.192,5.693,13.021,12.717,13.021   c2.929,0,5.624-1.016,7.774-2.72c0.677,4.921,2.141,9.131,4.868,12.157c3.015,3.346,7.441,5.042,13.154,5.042   c6.65,0,11.572-1.922,14.631-5.714c2.38-2.95,3.521-6.884,3.865-11.384c0.005-0.008,0.01-0.015,0.015-0.022   c1.784,0.709,3.733,1.103,5.778,1.103c8.46,0,15.318-6.69,15.318-14.941c0-8.252-6.859-14.941-15.318-14.941   c-3.306,0-6.365,1.025-8.869,2.763c-0.263-1.236-0.529-2.466-0.792-3.682c-0.301-1.389-0.581-2.764-0.84-4.118   c-0.232-1.209-0.445-2.4-0.64-3.57c-0.769-4.607-1.242-8.868-1.315-12.447c2.306,0.621,4.557,1.442,6.721,2.456   c2.116,0.992,4.149,2.165,6.066,3.519c1.956,1.381,3.737,2.95,5.365,4.655c1.486,1.556,2.843,3.227,4.062,4.999   c0.358,0.52,0.704,1.049,1.039,1.584c2.815,4.497,4.838,9.518,6.102,14.673C96.053,66.479,83.806,83.06,69.835,91.415z    M24.527,63.683c-4.66,0.536-7.831-1.515-8.387-6.108c-0.554-4.593,1.218-7.799,5.877-8.336c4.661-0.535,8.785,1.905,9.339,6.497   C31.911,60.33,29.187,63.149,24.527,63.683z M76.931,44.694c4.516-0.551,7.687,1.928,8.241,6.444   c0.553,4.518-2.134,7.836-6.65,8.387c-4.517,0.552-8.321-1.971-8.872-6.488C69.096,48.52,72.413,45.246,76.931,44.694z"/></g><text x="0" y="115" fill="#000000" font-size="5px" font-weight="bold" font-family="'Helvetica Neue', Helvetica, Arial-Unicode, Arial, Sans-serif">Created by Anders Wideshot</text><text x="0" y="120" fill="#000000" font-size="5px" font-weight="bold" font-family="'Helvetica Neue', Helvetica, Arial-Unicode, Arial, Sans-serif">from the Noun Project</text></svg>