<svg xmlns="http://www.w3.org/2000/svg" xmlns:xlink="http://www.w3.org/1999/xlink" version="1.1" x="0px" y="0px" viewBox="0 0 100 125" enable-background="new 0 0 100 100" xml:space="preserve"><g><path fill="#000000" d="M773,464h-10c0,0-5.526,0.719-2.656,6.625C763.594,477.313,768,478,768,478s4.063-0.125,7.688-6.688   S773,464,773,464z"/><path fill="#000000" d="M789.25,425.417c-4.096,0-7.417,4.16-7.417,9.292S785.154,444,789.25,444s7.417-4.16,7.417-9.292   S793.346,425.417,789.25,425.417z M789.25,435.236c-1.335,0-2.417-1.579-2.417-3.528s1.082-3.528,2.417-3.528   s2.417,1.579,2.417,3.528S790.585,435.236,789.25,435.236z"/><path fill="#000000" d="M744.25,425.417c-4.096,0-7.417,4.16-7.417,9.292S740.154,444,744.25,444s7.417-4.16,7.417-9.292   S748.346,425.417,744.25,425.417z M744.25,435.236c-1.335,0-2.417-1.579-2.417-3.528s1.082-3.528,2.417-3.528   s2.417,1.579,2.417,3.528S745.585,435.236,744.25,435.236z"/><path fill="#000000" d="M743.421,372.838c-2.999-5.736-17.603-30.384-42.921-21.171c-23.192,8.44-20.367,33.88-19.364,39.829   c0.056,0.33,0.514,0.371,0.63,0.057c1.38-3.765,6.847-15.481,23.067-21.719c16.74-6.439,33.604,1.248,38.041,3.553   C743.229,373.571,743.606,373.192,743.421,372.838z"/><path fill="#000000" d="M852.931,391.121c1.004-5.949,3.829-31.389-19.364-39.829c-25.317-9.214-39.921,15.435-42.921,21.171   c-0.185,0.354,0.191,0.733,0.546,0.549c4.438-2.305,21.301-9.992,38.041-3.553c16.22,6.239,21.687,17.955,23.067,21.719   C852.416,391.492,852.875,391.451,852.931,391.121z"/><path fill="#000000" d="M853.342,352.435c0.812-15.39-1.032-31.258-8.238-45.073c-8.134-15.595-22.677-25.982-39.231-31.217   c-8.342-2.638-17.222-4.251-26.237-4.967c-7.172-14.232-21.471-25.688-35.889-31.664c-14.679-6.084-32.169-7.879-47.536-3.488   c-13.79,3.94-26.011,12.336-36.247,22.214c-9.491,9.16-17.838,19.648-29.93,25.608c-3.996,1.97-8.354,3.364-12.839,3.485   c-5.674,0.153-9.404-2.326-14.477-4.247c-3.231-1.223-7.513,0.111-6.641,4.357c0.736,3.581,5.766,6.622,8.813,7.955   c4.946,2.164,10.492,2.334,15.754,1.456c16.91-2.822,30.533-14.93,43.538-25.219c11.615-9.189,24.466-20.401,39.763-22.264   c18.748-2.283,35.817,10.601,49.238,22.232c-4.72,0.518-9.373,1.253-13.892,2.217c-17.8,3.8-34.557,12.615-44.845,28.033   c-9.846,14.754-12.324,33.037-11.397,50.431c-20.427,22.667-10.334,59.047,18.945,67.717c5.76,11.356,12.178,22.647,19.467,33.195   c-8.675-0.086-17.263,1.917-24.675,6.724c-1.345,0.872-0.093,3.038,1.262,2.159c7.546-4.894,16.364-6.726,25.197-6.338   c1.448,2.03,2.919,4.04,4.438,6.003c0.306,0.396,0.618,0.79,0.929,1.185c-3.344,0.655-6.66,1.802-9.897,3.519   c-5.839,3.097-11.376,7.64-15.294,13.005c-0.95,1.301,1.218,2.55,2.159,1.262c3.283-4.496,7.932-8.341,12.687-11.149   c3.946-2.329,8.032-3.754,12.162-4.385c1.258,1.523,2.558,3.024,3.911,4.478c-2.59,1.186-4.989,3.06-7.083,5.764   c-3.765,4.863-6.179,11.244-7.045,17.328c-0.224,1.574,2.184,2.254,2.411,0.665c0.683-4.797,2.366-9.689,4.835-13.841   c2.396-4.03,5.431-6.57,8.842-7.887c4.73,4.748,10.06,8.867,16.237,11.5c16.76,7.146,33.163-0.328,45.759-11.649   c3.575,1.268,6.755,3.844,9.247,8.036c2.468,4.151,4.152,9.046,4.835,13.841c0.226,1.586,2.635,0.912,2.411-0.665   c-0.867-6.087-3.282-12.461-7.045-17.328c-2.154-2.787-4.635-4.69-7.315-5.869c1.402-1.353,2.752-2.748,4.041-4.17   c0.058-0.064,0.115-0.131,0.173-0.195c4.108,0.635,8.172,2.057,12.091,4.377c4.753,2.814,9.403,6.65,12.687,11.149   c0.939,1.286,3.11,0.04,2.159-1.262c-3.918-5.365-9.455-9.908-15.294-13.005c-3.168-1.68-6.41-2.816-9.68-3.479   c2.033-2.35,3.992-4.777,5.89-7.261c8.585-0.256,17.122,1.614,24.457,6.372c1.354,0.878,2.608-1.285,1.262-2.159   c-7.171-4.652-15.444-6.685-23.833-6.733c7.668-10.436,14.246-21.824,20.033-33.231   C863.514,411.209,873.549,375.087,853.342,352.435z M716.112,247.396c-10.588-2.061-20.819,0.503-30.127,5.658   c-11.51,6.374-21.517,15.3-31.859,23.341c-12.009,9.337-28.637,21.852-44.992,17.808c-2.336-0.578-4.582-1.541-6.541-2.947   c-0.975-0.7-1.878-1.508-2.687-2.394c-2.523-2.766,0.181-4.246,3.213-2.782c6.431,3.104,12.517,4.629,19.661,3.042   c13.693-3.042,24.468-14.013,33.77-23.82c7.501-7.908,15.682-15.08,25.222-20.457c15.469-8.719,33.003-10.639,50.217-6.52   c17.745,4.246,35.769,16.204,44.725,32.642c-6.759-0.389-13.568-0.269-20.266,0.311c-0.066-0.143-0.167-0.282-0.314-0.411   C744.663,260.838,731.462,250.385,716.112,247.396z M831.493,415.586c-1.203,0.29-2.418,0.551-3.645,0.708   c-1.339,0.171-2.5,1.026-2.5,2.5c0,1.218,1.151,2.673,2.5,2.5c0.092-0.012,0.183-0.03,0.275-0.042   c-5.901,11.231-12.621,22.25-20.34,32.301c-8.586,0.971-17.022,3.844-24.247,7.951c-1.399,0.795-0.14,2.956,1.262,2.159   c6.239-3.546,13.425-6.146,20.807-7.306c-1.612,2.01-3.291,4-5.047,5.929c-7.078-0.166-14.155,1.81-20.772,5.552   c-1.4,0.792-0.142,2.953,1.262,2.159c5.501-3.111,11.291-4.884,17.095-5.155c-1.099,1.123-2.226,2.218-3.386,3.274   c-4.829-0.429-9.983,0.899-14.887,3.305c-1.444,0.709-0.179,2.866,1.262,2.159c3.636-1.785,7.27-2.82,10.721-2.965   c-3.359,2.734-6.972,5.127-10.899,6.977c-14.506,6.836-27.531,2.173-38.259-7.004c3.584,0.067,7.38,1.129,11.175,2.991   c1.439,0.706,2.708-1.449,1.262-2.159c-4.993-2.451-10.238-3.779-15.136-3.279c-1.108-1.061-2.19-2.164-3.243-3.306   c5.835,0.252,11.658,2.027,17.2,5.161c1.402,0.793,2.664-1.366,1.262-2.159c-6.598-3.731-13.656-5.708-20.716-5.554   c-0.408-0.481-0.812-0.966-1.21-1.457c-1.169-1.439-2.312-2.906-3.435-4.392c7.22,1.195,14.238,3.755,20.349,7.228   c1.401,0.796,2.662-1.363,1.262-2.159c-7.065-4.015-15.286-6.857-23.673-7.889c-7.364-10.166-13.771-21.238-19.534-32.343   c0.049,0.006,0.096,0.016,0.145,0.022c1.342,0.172,2.5-1.272,2.5-2.5c0-1.493-1.154-2.328-2.5-2.5   c-1.178-0.151-2.345-0.399-3.501-0.673c-0.273-0.141-0.566-0.213-0.864-0.223c-26.09-7.272-35.462-39.246-17.583-59.432   c0.802-0.2,1.473-0.761,1.63-1.697c11.869-10.959,29.574-13.393,43.65-4.965c12.486,7.475,18.811,21.507,17.31,35.794   c-0.336,3.197,4.667,3.173,5,0c1.726-16.422-6.367-32.712-20.923-40.766c-14.611-8.084-32.285-6.209-45.244,3.601   c-0.261-13.117,1.58-26.464,7.71-38.188c7.952-15.207,22.254-24.832,38.506-29.481c19.826-5.671,42.75-5.904,62.836-1.35   c16.599,3.764,32.229,12.116,41.483,26.832c7.932,12.615,10.353,27.582,10.091,42.287c-12.964-9.895-30.714-11.813-45.376-3.701   c-14.556,8.053-22.649,24.343-20.923,40.766c0.333,3.168,5.336,3.202,5,0c-1.501-14.284,4.827-28.32,17.31-35.794   c14.127-8.458,31.883-5.976,43.753,5.063c0.069,1.206,0.923,1.886,1.916,2.031c17.335,20.173,7.964,51.663-17.823,58.96   C832.062,415.37,831.768,415.443,831.493,415.586z"/></g><g><ellipse transform="matrix(0.7584 0.6518 -0.6518 0.7584 31.043 -15.9768)" fill="none" cx="37.071" cy="33.882" rx="1.901" ry="2.604"/><path fill="none" d="M49.594,57.944c7.259,0,13.905-2.163,19.034-5.733c6.305-4.389,10.313-10.908,10.313-18.179   c0-3.032-0.703-5.931-1.972-8.602c-0.943,0.312-1.948,0.487-2.996,0.487l-9.542-9.542c0-0.963,0.146-1.891,0.411-2.767   c-4.447-2.212-9.667-3.488-15.248-3.488c-6.142,0-11.847,1.548-16.565,4.187c0.148,0.667,0.231,1.357,0.231,2.069l-9.542,9.542   c-0.568,0-1.121-0.059-1.661-0.154c-1.17,2.578-1.81,5.363-1.81,8.269c0,7.271,4.008,13.79,10.313,18.179   C35.689,55.781,42.336,57.944,49.594,57.944z M58.657,27.912c2.406-2.068,6.654-1.072,9.488,2.225   c2.834,3.297,3.181,7.647,0.774,9.715s-6.654,1.072-9.488-2.225C56.598,34.33,56.251,29.98,58.657,27.912z M49.522,36.652   c1.691,0,3.061,0.843,3.061,1.882c0,1.039-1.371,1.882-3.061,1.882c-1.691,0-3.061-0.843-3.061-1.882   C46.461,37.495,47.831,36.652,49.522,36.652z M44.526,41.436c0.365,6.51,10.159,6.498,10.523,0c0.068-1.223,1.977-1.227,1.908,0   c-0.502,8.961-13.838,8.961-14.34,0C42.548,40.207,44.457,40.215,44.526,41.436z M31.442,30.137   c2.834-3.297,7.082-4.293,9.488-2.225s2.06,6.418-0.774,9.715c-2.834,3.297-7.082,4.293-9.488,2.225   C28.261,37.784,28.608,33.435,31.442,30.137z"/><ellipse transform="matrix(0.6518 0.7584 -0.7584 0.6518 47.4614 -35.6134)" fill="none" cx="62.516" cy="33.882" rx="2.604" ry="1.901"/><path fill="none" d="M68.041,78.504c-3.499,2.969-12.617-1.891-7.846-7.722C64.966,64.951,60.089,62,60.089,62h-8.904h-3.181   h-8.906c0,0-4.877,2.964-0.106,8.796c4.771,5.831-4.347,10.607-7.846,7.638c-1.385-1.175-3.846-3.133-5.686-6.078   c-0.21,0.843-0.381,1.724-0.506,2.585l12.853,16.202c1.923,0.201,3.866,0.263,5.75,0.305c4.559,0.101,9.149,0.13,13.706-0.044   c1.455-0.056,2.974-0.123,4.489-0.288l12.454-15.687c-0.123-0.999-0.305-1.982-0.541-2.948   C71.834,75.368,69.411,77.342,68.041,78.504z"/><ellipse fill="#000000" cx="49.522" cy="38.534" rx="3.061" ry="1.882"/><path fill="#000000" d="M56.957,41.436c0.069-1.227-1.84-1.223-1.908,0c-0.364,6.498-10.158,6.51-10.523,0   c-0.068-1.221-1.977-1.229-1.908,0C43.119,50.398,56.455,50.397,56.957,41.436z"/><path fill="#000000" d="M40.156,37.627c2.834-3.297,3.181-7.647,0.774-9.715s-6.654-1.072-9.488,2.225   c-2.834,3.297-3.181,7.647-0.774,9.715C33.074,41.92,37.322,40.924,40.156,37.627z M35.629,32.643   c0.938-1.091,2.343-1.42,3.139-0.736c0.796,0.684,0.681,2.123-0.256,3.214c-0.938,1.091-2.343,1.42-3.139,0.736   C34.577,35.173,34.692,33.734,35.629,32.643z"/><path fill="#000000" d="M68.92,39.852c2.406-2.068,2.06-6.418-0.774-9.715c-2.834-3.297-7.082-4.293-9.488-2.225   s-2.06,6.418,0.774,9.715C62.266,40.924,66.514,41.92,68.92,39.852z M60.819,31.907c0.796-0.684,2.202-0.355,3.139,0.736   c0.938,1.091,1.052,2.53,0.256,3.214c-0.796,0.684-2.202,0.355-3.139-0.736C60.137,34.03,60.022,32.591,60.819,31.907z"/><path fill="#000000" d="M84.92,79h-4.971l-4.894-4.715c-0.167-1.106-0.406-1.919-0.705-2.984c2.35-4.452,3.068-10.886-2.593-19.152   c5.616-4.671,9.093-11.064,9.093-18.152c0-3.308-0.765-6.452-2.143-9.361c2.871-1.645,4.809-4.724,4.809-8.269   c0-5.27-4.272-9.538-9.542-9.538c-3.633,0-6.79,2.033-8.402,5.02c-4.679-2.309-10.142-3.639-15.977-3.639   c-6.34,0-12.241,1.572-17.174,4.263c-1.492-3.323-4.823-5.64-8.702-5.64c-5.27,0-9.542,4.272-9.542,9.542   c0,4.028,2.5,7.466,6.029,8.866c-1.207,2.745-1.868,5.705-1.868,8.791c0,7.088,3.477,13.516,9.093,18.187   c-5.604,8.266-4.955,14.65-2.662,19.102c-0.406,1.318-0.723,2.32-0.922,3.673L19.584,79h-4.971c-0.97,0-1.593,1.312-1.143,2.171   l4.93,9.561c0.369,0.705,1.102,1.216,1.898,1.21l17.054,0.05c0.233,0.027,0.465,0.071,0.696,0.095   c5.531,0.572,11.196,0.415,16.747,0.327c2.423-0.039,5.017-0.066,7.55-0.391l16.89-0.013c0.796,0.006,1.529-0.433,1.898-1.138   l4.93-9.702C86.513,80.311,85.89,79,84.92,79z M20.247,34.032c0-2.905,0.641-5.69,1.81-8.269c0.541,0.095,1.094,0.154,1.661,0.154   l9.542-9.542c0-0.711-0.084-1.402-0.231-2.069c4.718-2.639,10.423-4.187,16.565-4.187c5.58,0,10.801,1.276,15.248,3.488   c-0.265,0.876-0.411,1.804-0.411,2.767l9.542,9.542c1.048,0,2.053-0.175,2.996-0.487c1.269,2.671,1.972,5.57,1.972,8.602   c0,7.271-4.008,13.79-10.313,18.179c-5.129,3.57-11.775,5.733-19.034,5.733s-13.905-2.163-19.034-5.733   C24.255,47.822,20.247,41.303,20.247,34.032z M61.754,91.117c-1.515,0.165-3.035,0.234-4.489,0.29   c-4.557,0.175-9.147,0.148-13.706,0.047c-1.884-0.042-3.828-0.097-5.75-0.299l-12.853-16.19c0.124-0.861,0.296-1.718,0.506-2.561   c1.84,2.944,4.301,4.951,5.686,6.126c3.499,2.969,12.617-1.904,7.846-7.735C34.222,64.964,39.099,62,39.099,62h8.906h3.181h8.904   c0,0,4.877,2.951,0.106,8.782c-4.771,5.831,4.347,10.593,7.846,7.625c1.37-1.163,3.793-3.087,5.627-5.975   c0.236,0.966,0.418,1.974,0.541,2.973L61.754,91.117z"/></g></svg>