<svg xmlns:dc="http://purl.org/dc/elements/1.1/" xmlns:cc="http://creativecommons.org/ns#" xmlns:rdf="http://www.w3.org/1999/02/22-rdf-syntax-ns#" xmlns:svg="http://www.w3.org/2000/svg" xmlns="http://www.w3.org/2000/svg" xmlns:sodipodi="http://sodipodi.sourceforge.net/DTD/sodipodi-0.dtd" xmlns:inkscape="http://www.inkscape.org/namespaces/inkscape" version="1.1" x="0px" y="0px" viewBox="0 0 100 125"><g transform="translate(0,-952.36218)"><path style="" d="m 45.449224,1042.6264 c -1.793809,-0.3388 -9.181319,-1.9596 -3.835972,-1.4021 2.519162,-0.3783 8.636155,2.5033 8.856944,-0.6342 -2.335085,-4.0852 -7.139131,-5.5993 -10.039941,-9.0063 -2.24803,-5.6007 6.282153,-2.5703 9.175081,-2.037 4.273322,1.6804 8.714345,-1.8731 12.915442,-0.061 1.319631,3.8628 -4.812356,5.5878 -7.053003,7.9414 -1.617438,0.594 -5.419497,5.571 -1.54598,4.6604 3.033855,-0.117 6.244013,-0.5062 9.117285,-0.6039 -5.63461,1.693 -11.775289,1.455 -17.589856,1.1423 z m 27.123002,-19.0676 c -5.345638,-3.8459 -8.279238,-9.9443 -10.272721,-16.0428 -0.801438,-3.1498 -4.165698,-8.98816 0.506325,-10.32956 8.085436,0.5047 15.754472,14.25686 17.322089,20.40336 -0.405547,2.9324 -4.242367,8.1166 -7.555693,5.969 z m -46.786085,-3.1579 c -3.205614,-1.7529 -8.967833,-4.9213 -6.612386,-9.3281 3.482824,-5.0814 9.935557,-7.2878 12.843452,-12.88326 1.740355,-4.4134 8.32415,-4.3331 9.859078,0.1311 0.749308,4.96366 -2.618207,9.34856 -5.071582,13.36266 -2.63728,3.3518 -5.159347,7.6507 -9.492405,8.875 l -0.759787,0 -0.76637,-0.1562 z m 48.5435,-46.51726 c -2.361662,-0.8295 -0.157825,-2.6801 0.431849,-4.1002 2.005567,-3.4791 5.543088,-6.4929 9.80589,-5.9237 5.840001,-0.1386 9.25264,5.7651 9.977409,10.882 0.732573,4.824 0.864697,10.3212 -1.803482,14.5869 -3.753126,2.4755 -6.922685,-2.9513 -9.295529,-5.2651 -2.977749,-3.4382 -5.585435,-7.2662 -9.116137,-10.1799 z m -69.3046142,5.446 c -0.22473,-6.1874 0.970941,-14.0801 7.4045952,-16.8088 3.686384,-1.3427 8.644014,-0.6789 10.920569,2.8441 0.797859,1.7599 4.691042,4.6755 2.87167,6.288 -5.924397,4.641 -9.330788,11.9532 -15.707751,16.103 -5.1440592,2.7473 -5.3106252,-5.4966 -5.4890832,-8.4263 z" fill="#000000"/></g></svg>